<svg xmlns="http://www.w3.org/2000/svg" viewBox="0 0 100 100" width="100" height="100" fill="currentColor" aria-hidden="true"><path d="m21.391 60.203c0.17188 0.87891 0.95312 1.5156 1.8516 1.5156h9.2344c0.8125 0 1.5312-0.51953 1.7891-1.2891l0.92188-2.7695c0.16797-0.50781 0.11328-1.0625-0.14844-1.5273-0.26172-0.46484-0.71094-0.79687-1.2344-0.91406l-11.211-2.4922c-0.625-0.14062-1.2734 0.046876-1.7266 0.49219-0.45703 0.44922-0.65625 1.0898-0.53125 1.7188l1.0547 5.2578zm0.57031-5.8594c0.039062-0.039062 0.11328-0.09375 0.22266-0.09375 0.023437 0 0.046875 0 0.074218 0.007812l11.211 2.4922c0.12109 0.027344 0.18359 0.10938 0.21094 0.15625 0.027343 0.046875 0.0625 0.14062 0.023437 0.26172l-0.92188 2.7695c-0.046875 0.13281-0.16797 0.22266-0.30859 0.22266h-9.2344c-0.15625 0-0.28906-0.10938-0.31641-0.26172l-1.0547-5.2617c-0.03125-0.14844 0.042968-0.25 0.09375-0.29688zm19.902 0.39453c0-0.42969 0.35156-0.78125 0.78125-0.78125h15.625c0.42969 0 0.78125 0.35156 0.78125 0.78125 0 0.42969-0.35156 0.78125-0.78125 0.78125h-15.625c-0.42969 0-0.78125-0.35156-0.78125-0.78125zm15.625 2.6602c0 0.42969-0.35156 0.78125-0.78125 0.78125h-12.5c-0.42969 0-0.78125-0.35156-0.78125-0.78125 0-0.42969 0.35156-0.78125 0.78125-0.78125h12.5c0.42969 0 0.78125 0.35156 0.78125 0.78125zm-1.5625 2.6602c0 0.42969-0.35156 0.78125-0.78125 0.78125h-9.375c-0.42969 0-0.78125-0.35156-0.78125-0.78125 0-0.42969 0.35156-0.78125 0.78125-0.78125h9.375c0.42969 0 0.78125 0.35156 0.78125 0.78125zm10.727 0.37109c0.25781 0.76953 0.97656 1.2891 1.7891 1.2891h9.2344c0.89844 0 1.6758-0.64062 1.8516-1.5156l1.0547-5.2617c0.125-0.62891-0.070312-1.2695-0.53125-1.7188-0.45703-0.44922-1.1055-0.62891-1.7266-0.49219l-11.211 2.4922c-0.51953 0.11719-0.96875 0.44922-1.2344 0.91406-0.26172 0.46484-0.31641 1.0195-0.14844 1.5273l0.92578 2.7695zm0.58203-3.5273c0.027344-0.046875 0.089844-0.12891 0.21094-0.15625l11.211-2.4922c0.027344-0.007812 0.050781-0.007812 0.074219-0.007812 0.10938 0 0.18359 0.054687 0.22266 0.09375 0.046875 0.046875 0.12109 0.14453 0.09375 0.29688l-1.0547 5.2617c-0.03125 0.14844-0.16406 0.25781-0.31641 0.25781h-9.2344c-0.14062 0-0.26172-0.089844-0.30469-0.22266l-0.92188-2.7695c-0.039063-0.11719 0-0.21484 0.023437-0.26172zm-26.973 4.6016c0.41797 1.2812 1.6016 2.1406 2.9531 2.1406h14.484c1.3477 0 2.5312-0.85938 2.9531-2.1406l2.0547-6.2891c0.3125-0.95703 0.15234-1.9727-0.4375-2.7852-0.58984-0.8125-1.5078-1.2812-2.5117-1.2812h-18.594c-1.0078 0-1.9219 0.46875-2.5117 1.2812s-0.75 1.8281-0.4375 2.7852l2.0547 6.2891zm-0.35156-8.1562c0.29297-0.40625 0.75-0.63672 1.25-0.63672h18.594c0.5 0 0.95312 0.23047 1.25 0.63672 0.29297 0.40625 0.37109 0.91016 0.21875 1.3828l-2.0547 6.2891c-0.20703 0.63672-0.79688 1.0625-1.4648 1.0625h-14.484c-0.67188 0-1.2578-0.42578-1.4648-1.0625l-2.0547-6.2891c-0.15625-0.47656-0.078125-0.98047 0.21875-1.3828zm10.547-51.004c-10.402 0-20.238 3.3008-28.516 9.5078l-3.2969-3.3008c-0.62109-0.62109-1.6094-0.67969-2.3047-0.14453l-8.4141 6.543c-0.39453 0.30469-0.64062 0.76953-0.67188 1.2656-0.023437 0.39062 0.11719 0.75781 0.33594 1.0781l-5.0195 5.0195c-0.44141 0.44141-0.6875 1.0312-0.6875 1.6562s0.24219 1.2148 0.6875 1.6562c0.45703 0.45703 1.0586 0.68359 1.6562 0.68359 0.60156 0 1.2031-0.22656 1.6562-0.68359l4.9727-4.9727 3.3125 3.3125-4.9727 4.9727c-0.44141 0.44141-0.6875 1.0312-0.6875 1.6562s0.24219 1.2148 0.6875 1.6562c0.44141 0.44531 1.0273 0.6875 1.6562 0.6875 0.625 0 1.2148-0.24219 1.6562-0.6875l5.0156-5.0156c0.28906 0.19922 0.61719 0.33594 0.97266 0.33594 0.035156 0 0.070312 0 0.10938-0.003906 0.5-0.03125 0.96094-0.27344 1.2695-0.66797l6.543-8.4141c0.53906-0.69531 0.47656-1.6836-0.14453-2.3047l-3.2188-3.2188c7.9688-5.918 17.414-9.0664 27.398-9.0664 25.418 0 46.094 20.676 46.094 46.094s-20.676 46.094-46.094 46.094c-25.156 0-45.672-20.254-46.086-45.312h11.125l1.2578 15.07c0.097656 1.1875 1.1094 2.1172 2.2969 2.1172h1.1562l0.67188 2.0156c0.53516 1.5977 2.0234 2.6719 3.707 2.6719h11.121c1.6836 0 3.1719-1.0742 3.707-2.6719l0.67188-2.0156h20.75l0.67188 2.0156c0.53516 1.5977 2.0234 2.6719 3.707 2.6719h11.121c1.6836 0 3.1719-1.0742 3.707-2.6719l0.67188-2.0156h1.1562c1.1914 0 2.1992-0.92969 2.2969-2.1172l1.3555-16.242c0.082031-0.98047-0.39062-1.9062-1.2383-2.4141l-2.2344-1.3398 3.1172-2.9766c0.55859-0.53125 0.78125-1.3281 0.57422-2.0742-0.20703-0.74609-0.80078-1.3125-1.5547-1.4844l-9.9883-2.2695-3.1289-5.6289c-0.86328-1.5508-2.4297-2.5664-4.1992-2.7109l-10.887-0.90625c-3.6641-0.30469-7.375-0.30469-11.039 0l-10.887 0.90625c-1.7695 0.14844-3.3359 1.1602-4.1992 2.7109l-3.1289 5.6289-9.9883 2.2695c-0.75391 0.17188-1.3516 0.74219-1.5547 1.4844-0.20703 0.74609 0.015625 1.5391 0.57031 2.0742l3.1172 2.9766-2.2344 1.3398c-0.73047 0.4375-1.1562 1.1953-1.2148 2.0234l-11.84 0.011719c-0.42969 0-0.78125 0.35156-0.78125 0.78125 0 26.277 21.379 47.656 47.656 47.656 26.277 0 47.656-21.379 47.656-47.656s-21.379-47.656-47.656-47.656zm-45.676 22.184c-0.30469 0.30469-0.80078 0.30469-1.1055 0-0.14844-0.14844-0.22656-0.34375-0.22656-0.55469 0-0.21094 0.082031-0.40625 0.22656-0.55469l4.9727-4.9727 1.1055 1.1055-4.9727 4.9727zm6.6289 6.6289c-0.14844 0.14844-0.34375 0.22656-0.55469 0.22656-0.20703 0-0.40234-0.082031-0.55078-0.22656-0.14844-0.14844-0.22656-0.34375-0.22656-0.55469 0-0.21094 0.082031-0.40625 0.22656-0.55469l4.9727-4.9727 1.1055 1.1055-4.9727 4.9727zm13.777-13.621-6.543 8.4141 0.61719 0.48047-0.88672-0.46094-9.5078-9.5078-0.125 0.125c-0.042969-0.003907-0.082032-0.015626-0.125-0.011719l0.26562-0.38281 8.4141-6.543c0.070313-0.058594 0.17188-0.050782 0.23828 0.015624l7.6367 7.6406c0.0625 0.0625 0.070313 0.16406 0.015625 0.23828zm12.738 51.953c-0.32031 0.96094-1.2109 1.6016-2.2227 1.6016h-11.121c-1.0078 0-1.9062-0.64453-2.2227-1.6016l-0.50781-1.5234h16.582zm40.625 0c-0.32031 0.96094-1.2109 1.6016-2.2227 1.6016h-11.121c-1.0078 0-1.9062-0.64453-2.2227-1.6016l-0.50781-1.5234h16.582zm5.2812-28.645c0.28125 0.0625 0.36719 0.28516 0.39453 0.37891 0.027344 0.09375 0.0625 0.32812-0.14844 0.52734l-3.4297 3.2734-3.0547-1.832-2.3906-4.3047 8.625 1.9609zm-52.621-8.6641c0.60937-1.0938 1.7188-1.8125 2.9648-1.9141l10.887-0.90625c3.5781-0.29688 7.2031-0.29688 10.777 0l10.891 0.90625c1.2461 0.10156 2.3555 0.82031 2.9609 1.9141l6.0703 10.93-22.23 2.6172c-2.0469 0.24219-4.1211 0.24219-6.1641 0l-22.23-2.6172 6.0703-10.93zm-14.387 9.5703c-0.20703-0.19922-0.17188-0.43359-0.14453-0.52734 0.023437-0.09375 0.11328-0.3125 0.39453-0.37891l8.625-1.9609-2.3906 4.3047-3.0547 1.832-3.4297-3.2734zm0.60938 6.7852 6.6328-3.9805 23.125 2.7188c1.082 0.12891 2.1758 0.19141 3.2656 0.19141 1.0898 0 2.1797-0.0625 3.2656-0.19141l23.125-2.7188 6.6289 3.9805c0.32813 0.19531 0.51563 0.56641 0.48438 0.94531l-1.3555 16.242c-0.03125 0.38281-0.35938 0.68359-0.74219 0.68359h-62.816c-0.38281 0-0.71094-0.30078-0.74219-0.68359l-1.3555-16.242c-0.03125-0.37891 0.16016-0.75 0.48438-0.94531z"/></svg>